<svg width="32" height="32" viewBox="0 0 32 32" fill="none" xmlns="http://www.w3.org/2000/svg">
<g clip-path="url(#clip0_91_16)">
<rect width="32" height="32" rx="10" fill="url(#paint0_linear_91_16)"/>
<path d="M8.25 10C8.25 7.79086 10.0409 6 12.25 6H16.0246C18.5599 6 20.466 6.44131 21.743 7.32394C23.0387 8.20657 23.6866 9.57746 23.6866 11.4366C23.6866 12.2629 23.5176 12.9859 23.1796 13.6056C22.8415 14.2066 22.3439 14.6854 21.6866 15.0423C21.5686 15.1082 21.4568 15.1682 21.3471 15.2227C21.203 15.2943 21.2303 15.9128 21.383 15.9633C22.0992 16.2 22.6524 16.5657 23.1796 17.0704C24.081 17.9155 24.5317 19.0516 24.5317 20.4789C24.5317 22.3192 23.8838 23.6995 22.588 24.6197C21.311 25.5399 19.4425 26 16.9824 26H12.25C10.0409 26 8.25 24.2091 8.25 22V10ZM16.7852 22.507C17.8369 22.507 18.6725 22.2911 19.2923 21.8592C19.912 21.4272 20.2218 20.7981 20.2218 19.9718C20.2218 19.1455 19.912 18.507 19.2923 18.0563C18.6725 17.6056 17.8369 17.3803 16.7852 17.3803H13.5317C12.9794 17.3803 12.5317 17.828 12.5317 18.3803V21.507C12.5317 22.0593 12.9794 22.507 13.5317 22.507H16.7852ZM15.912 14.2817C16.9824 14.2817 17.8275 14.0751 18.4472 13.662C19.0669 13.2488 19.3768 12.6573 19.3768 11.8873C19.3768 11.061 19.0763 10.4601 18.4754 10.0845C17.8744 9.69014 17.02 9.49296 15.912 9.49296H13.5317C12.9794 9.49296 12.5317 9.94067 12.5317 10.493V13.2817C12.5317 13.834 12.9794 14.2817 13.5317 14.2817H15.912Z" fill="white"/>
</g>
<defs>
<linearGradient id="paint0_linear_91_16" x1="32" y1="0" x2="0" y2="32" gradientUnits="userSpaceOnUse">
<stop stop-color="#DC2626"/>
<stop offset="0.25" stop-color="#EA580C"/>
<stop offset="0.5" stop-color="#F43F5E"/>
<stop offset="0.75" stop-color="#DB2777"/>
<stop offset="1" stop-color="#4C1D95"/>
</linearGradient>
<clipPath id="clip0_91_16">
<rect width="32" height="32" fill="white"/>
</clipPath>
</defs>
</svg>
